<svg xmlns="http://www.w3.org/2000/svg" xmlns:xlink="http://www.w3.org/1999/xlink" width="1080" zoomAndPan="magnify" viewBox="0 0 810 809.999993" height="1080" preserveAspectRatio="xMidYMid meet" version="1.0"><defs><clipPath id="d8d9583f7c"><path d="M 25 633 L 763 633 L 763 672.269531 L 25 672.269531 Z M 25 633 " clip-rule="nonzero"/></clipPath><clipPath id="ce12d3cbcc"><path d="M 95.757812 256.683594 L 244.621094 256.683594 L 244.621094 400 L 95.757812 400 Z M 95.757812 256.683594 " clip-rule="nonzero"/></clipPath><clipPath id="b84097b850"><path d="M 95.757812 256.683594 L 396 256.683594 L 396 547.917969 L 95.757812 547.917969 Z M 95.757812 256.683594 " clip-rule="nonzero"/></clipPath><clipPath id="2ad6309ca9"><path d="M 95.757812 256.683594 L 544 256.683594 L 544 619.257812 L 95.757812 619.257812 Z M 95.757812 256.683594 " clip-rule="nonzero"/></clipPath><clipPath id="e32a09dd98"><path d="M 205.738281 256.683594 L 654 256.683594 L 654 619.257812 L 205.738281 619.257812 Z M 205.738281 256.683594 " clip-rule="nonzero"/></clipPath><clipPath id="ceef0ff80d"><path d="M 323 267 L 692.664062 267 L 692.664062 619.257812 L 323 619.257812 Z M 323 267 " clip-rule="nonzero"/></clipPath><clipPath id="b0eb11d226"><path d="M 445.5 399 L 692.664062 399 L 692.664062 619.257812 L 445.5 619.257812 Z M 445.5 399 " clip-rule="nonzero"/></clipPath><clipPath id="af74cc1666"><path d="M 570 513 L 692.664062 513 L 692.664062 619.257812 L 570 619.257812 Z M 570 513 " clip-rule="nonzero"/></clipPath><clipPath id="49a0495d05"><path d="M 0 137.699219 L 360 137.699219 L 360 411 L 0 411 Z M 0 137.699219 " clip-rule="nonzero"/></clipPath></defs><g clip-path="url(#d8d9583f7c)"><path fill="#804dde" d="M 736.601562 672.269531 L 51.820312 672.269531 C 45.152344 672.269531 39.171875 668.160156 36.777344 661.941406 L 25.863281 633.523438 L 762.558594 633.523438 L 751.636719 661.941406 C 749.242188 668.160156 743.261719 672.269531 736.601562 672.269531 " fill-opacity="1" fill-rule="nonzero"/></g><path fill="#6a23b5" d="M 462.414062 652.902344 L 326.007812 652.902344 C 322.519531 652.902344 319.695312 650.078125 319.695312 646.589844 L 319.695312 633.523438 L 468.722656 633.523438 L 468.722656 646.589844 C 468.722656 650.078125 465.902344 652.902344 462.414062 652.902344 " fill-opacity="1" fill-rule="nonzero"/><path fill="#5d17a4" d="M 718.507812 633.523438 L 69.90625 633.523438 L 69.90625 247.816406 C 69.90625 235.113281 80.203125 224.820312 92.898438 224.820312 L 695.523438 224.820312 C 708.21875 224.820312 718.507812 235.113281 718.507812 247.816406 L 718.507812 633.523438 " fill-opacity="1" fill-rule="nonzero"/><path fill="#804dde" d="M 379.699219 240.753906 C 379.699219 244.011719 377.0625 246.660156 373.796875 246.660156 C 370.535156 246.660156 367.898438 244.011719 367.898438 240.753906 C 367.898438 237.492188 370.535156 234.847656 373.796875 234.847656 C 377.0625 234.847656 379.699219 237.492188 379.699219 240.753906 " fill-opacity="1" fill-rule="nonzero"/><path fill="#804dde" d="M 414.617188 246.660156 L 391.507812 246.660156 C 388.242188 246.660156 385.605469 244.011719 385.605469 240.753906 C 385.605469 237.492188 388.242188 234.847656 391.507812 234.847656 L 414.617188 234.847656 C 417.878906 234.847656 420.523438 237.492188 420.523438 240.753906 C 420.523438 244.011719 417.878906 246.660156 414.617188 246.660156 " fill-opacity="1" fill-rule="nonzero"/><path fill="#ffffff" d="M 692.664062 619.257812 L 95.757812 619.257812 L 95.757812 256.683594 L 692.664062 256.683594 L 692.664062 619.257812 " fill-opacity="1" fill-rule="nonzero"/><g clip-path="url(#ce12d3cbcc)"><path fill="#e8f7ff" d="M 80.601562 399.601562 L 51.585938 370.578125 L 215.480469 206.640625 L 244.492188 235.664062 L 80.601562 399.601562 " fill-opacity="1" fill-rule="nonzero"/></g><g clip-path="url(#b84097b850)"><path fill="#e8f7ff" d="M 66.105469 547.3125 L 37.089844 518.289062 L 366.5625 188.71875 L 395.578125 217.738281 L 66.105469 547.3125 " fill-opacity="1" fill-rule="nonzero"/></g><g clip-path="url(#2ad6309ca9)"><path fill="#e8f7ff" d="M 101.851562 644.761719 L 72.835938 615.738281 L 514.210938 174.230469 L 543.226562 203.253906 L 101.851562 644.761719 " fill-opacity="1" fill-rule="nonzero"/></g><g clip-path="url(#e32a09dd98)"><path fill="#e8f7ff" d="M 234.964844 644.816406 L 205.949219 615.789062 L 624.484375 197.132812 L 653.5 226.164062 L 234.964844 644.816406 " fill-opacity="1" fill-rule="nonzero"/></g><g clip-path="url(#ceef0ff80d)"><path fill="#e8f7ff" d="M 352.917969 660.035156 L 323.90625 631.011719 L 687.480469 267.324219 L 716.496094 296.347656 L 352.917969 660.035156 " fill-opacity="1" fill-rule="nonzero"/></g><g clip-path="url(#b0eb11d226)"><path fill="#e8f7ff" d="M 474.609375 671.511719 L 445.59375 642.480469 L 688.695312 399.316406 L 717.710938 428.339844 L 474.609375 671.511719 " fill-opacity="1" fill-rule="nonzero"/></g><g clip-path="url(#af74cc1666)"><path fill="#e8f7ff" d="M 599.078125 680.207031 L 570.0625 651.183594 L 707.808594 513.402344 L 736.820312 542.425781 L 599.078125 680.207031 " fill-opacity="1" fill-rule="nonzero"/></g><path fill="#f71880" d="M 802.253906 604.902344 L 568.050781 604.902344 C 563.773438 604.902344 560.304688 601.433594 560.304688 597.152344 L 560.304688 481.152344 C 560.304688 476.867188 563.773438 473.402344 568.050781 473.402344 L 802.253906 473.402344 C 806.53125 473.402344 810 476.867188 810 481.152344 L 810 597.152344 C 810 601.433594 806.53125 604.902344 802.253906 604.902344 " fill-opacity="1" fill-rule="nonzero"/><path fill="#f774af" d="M 666.328125 588.195312 L 582.195312 588.195312 C 578.347656 588.195312 575.226562 585.074219 575.226562 581.226562 L 575.226562 497.070312 C 575.226562 493.222656 578.347656 490.101562 582.195312 490.101562 L 666.328125 490.101562 C 670.171875 490.101562 673.292969 493.222656 673.292969 497.070312 L 673.292969 581.226562 C 673.292969 585.074219 670.171875 588.195312 666.328125 588.195312 " fill-opacity="1" fill-rule="nonzero"/><path fill="#f71880" d="M 604.539062 558.882812 C 601.898438 556.242188 601.898438 551.964844 604.539062 549.324219 L 634.433594 519.421875 C 637.070312 516.78125 641.347656 516.78125 643.980469 519.421875 C 646.621094 522.0625 646.621094 526.332031 643.980469 528.972656 L 614.085938 558.882812 C 611.449219 561.515625 607.175781 561.515625 604.539062 558.882812 " fill-opacity="1" fill-rule="nonzero"/><path fill="#f71880" d="M 604.539062 519.421875 C 607.175781 516.78125 611.449219 516.78125 614.085938 519.421875 L 643.980469 549.324219 C 646.621094 551.964844 646.621094 556.242188 643.980469 558.882812 C 641.347656 561.515625 637.070312 561.515625 634.433594 558.882812 L 604.539062 528.972656 C 601.898438 526.332031 601.898438 522.0625 604.539062 519.421875 " fill-opacity="1" fill-rule="nonzero"/><path fill="#f774af" d="M 732.980469 507.691406 L 692.421875 507.691406 C 687.570312 507.691406 683.632812 503.753906 683.632812 498.894531 C 683.632812 494.039062 687.570312 490.101562 692.421875 490.101562 L 732.980469 490.101562 C 737.835938 490.101562 741.769531 494.039062 741.769531 498.894531 C 741.769531 503.753906 737.835938 507.691406 732.980469 507.691406 " fill-opacity="1" fill-rule="nonzero"/><path fill="#f774af" d="M 768.527344 507.691406 L 759.8125 507.691406 C 754.953125 507.691406 751.015625 503.753906 751.015625 498.894531 C 751.015625 494.039062 754.953125 490.101562 759.8125 490.101562 L 768.527344 490.101562 C 773.378906 490.101562 777.316406 494.039062 777.316406 498.894531 C 777.316406 503.753906 773.378906 507.691406 768.527344 507.691406 " fill-opacity="1" fill-rule="nonzero"/><path fill="#f774af" d="M 687.480469 555.820312 L 695.320312 555.820312 C 697.21875 555.820312 698.921875 557.152344 699.21875 559.035156 C 699.605469 561.441406 697.757812 563.507812 695.429688 563.507812 L 687.480469 563.507812 C 685.355469 563.507812 683.632812 561.789062 683.632812 559.660156 C 683.632812 557.539062 685.355469 555.820312 687.480469 555.820312 " fill-opacity="1" fill-rule="nonzero"/><path fill="#f774af" d="M 707.1875 555.820312 L 725.203125 555.820312 C 727.109375 555.820312 728.808594 557.152344 729.109375 559.035156 C 729.492188 561.441406 727.644531 563.507812 725.3125 563.507812 L 707.1875 563.507812 C 705.0625 563.507812 703.339844 561.789062 703.339844 559.660156 C 703.339844 557.539062 705.0625 555.820312 707.1875 555.820312 " fill-opacity="1" fill-rule="nonzero"/><path fill="#f774af" d="M 736.421875 555.820312 L 791.125 555.820312 C 793.027344 555.820312 794.730469 557.152344 795.027344 559.035156 C 795.40625 561.441406 793.566406 563.515625 791.230469 563.515625 L 736.421875 563.515625 C 734.296875 563.515625 732.574219 561.792969 732.574219 559.667969 C 732.574219 557.539062 734.296875 555.820312 736.421875 555.820312 " fill-opacity="1" fill-rule="nonzero"/><path fill="#f774af" d="M 687.480469 573.410156 L 746.128906 573.410156 C 748.035156 573.410156 749.738281 574.746094 750.035156 576.625 C 750.421875 579.03125 748.574219 581.105469 746.246094 581.105469 L 687.480469 581.105469 C 685.355469 581.105469 683.632812 579.386719 683.632812 577.257812 C 683.632812 575.132812 685.355469 573.410156 687.480469 573.410156 " fill-opacity="1" fill-rule="nonzero"/><path fill="#f774af" d="M 758.925781 573.414062 L 791.125 573.414062 C 793.027344 573.414062 794.730469 574.75 795.027344 576.632812 C 795.40625 579.03125 793.566406 581.105469 791.230469 581.105469 L 758.925781 581.105469 C 756.804688 581.105469 755.085938 579.386719 755.085938 577.257812 C 755.085938 575.136719 756.804688 573.414062 758.925781 573.414062 " fill-opacity="1" fill-rule="nonzero"/><path fill="#f774af" d="M 687.480469 538.222656 L 714.28125 538.222656 C 716.1875 538.222656 717.886719 539.558594 718.183594 541.4375 C 718.570312 543.84375 716.722656 545.917969 714.386719 545.917969 L 687.589844 545.917969 C 685.683594 545.917969 683.980469 544.582031 683.683594 542.703125 C 683.304688 540.296875 685.152344 538.222656 687.480469 538.222656 " fill-opacity="1" fill-rule="nonzero"/><path fill="#f774af" d="M 724.804688 541.4375 C 725.101562 539.558594 726.804688 538.222656 728.707031 538.222656 L 791.125 538.222656 C 793.027344 538.222656 794.730469 539.5625 795.027344 541.441406 C 795.40625 543.84375 793.566406 545.917969 791.230469 545.917969 L 728.601562 545.917969 C 726.273438 545.917969 724.425781 543.84375 724.804688 541.4375 " fill-opacity="1" fill-rule="nonzero"/><path fill="#f774af" d="M 791.179688 528.320312 L 781.269531 528.320312 C 779.367188 528.320312 777.664062 526.984375 777.367188 525.105469 C 776.984375 522.699219 778.835938 520.628906 781.164062 520.628906 L 791.179688 520.628906 C 793.300781 520.628906 795.027344 522.351562 795.027344 524.472656 C 795.027344 526.597656 793.300781 528.320312 791.179688 528.320312 " fill-opacity="1" fill-rule="nonzero"/><path fill="#f774af" d="M 683.632812 524.472656 C 683.632812 522.351562 685.355469 520.628906 687.480469 520.628906 L 769.9375 520.628906 C 772.0625 520.628906 773.785156 522.351562 773.785156 524.472656 C 773.785156 526.597656 772.0625 528.320312 769.9375 528.320312 L 687.480469 528.320312 C 685.355469 528.320312 683.632812 526.597656 683.632812 524.472656 " fill-opacity="1" fill-rule="nonzero"/><path fill="#f71880" d="M 560.304688 506.210938 L 527.855469 538.675781 L 561.253906 572.085938 Z M 560.304688 506.210938 " fill-opacity="1" fill-rule="nonzero"/><g clip-path="url(#49a0495d05)"><path fill="#a77bea" d="M 350.109375 410.199219 L 9.859375 410.199219 C 4.417969 410.199219 0 405.78125 0 400.332031 L 0 147.796875 C 0 142.355469 4.417969 137.9375 9.859375 137.9375 L 350.109375 137.9375 C 355.550781 137.9375 359.96875 142.355469 359.96875 147.796875 L 359.96875 400.332031 C 359.96875 405.78125 355.550781 410.199219 350.109375 410.199219 " fill-opacity="1" fill-rule="nonzero"/></g><path fill="#a77bea" d="M 174.597656 405.089844 L 215.746094 446.246094 L 261.945312 400.03125 Z M 174.597656 405.089844 " fill-opacity="1" fill-rule="nonzero"/><path fill="#c9acf1" d="M 114.457031 246.53125 L 114.457031 210.425781 L 100.460938 246.53125 Z M 139.257812 247.457031 C 139.8125 248.082031 140.097656 248.835938 140.097656 249.734375 L 140.097656 261.039062 C 140.097656 261.9375 139.8125 262.703125 139.257812 263.3125 C 138.695312 263.9375 137.960938 264.25 137.0625 264.25 L 132.167969 264.25 L 132.167969 276.390625 C 132.167969 277.289062 131.890625 278.054688 131.328125 278.667969 C 130.765625 279.289062 130.03125 279.597656 129.132812 279.597656 L 117.664062 279.597656 C 116.765625 279.597656 116 279.289062 115.386719 278.667969 C 114.765625 278.054688 114.457031 277.289062 114.457031 276.390625 L 114.457031 264.25 L 79.039062 264.25 C 78.476562 264.25 78.007812 264.046875 77.609375 263.652344 C 77.214844 263.261719 77.011719 262.785156 77.011719 262.222656 C 77.011719 261.886719 77.132812 261.382812 77.363281 260.699219 L 114.292969 164.875 C 114.632812 163.976562 115.246094 163.191406 116.144531 162.515625 C 117.046875 161.835938 117.945312 161.5 118.84375 161.5 L 129.132812 161.5 C 130.03125 161.5 130.765625 161.8125 131.328125 162.433594 C 131.890625 163.046875 132.167969 163.8125 132.167969 164.710938 L 132.167969 246.53125 L 137.0625 246.53125 C 137.960938 246.53125 138.695312 246.835938 139.257812 247.457031 " fill-opacity="1" fill-rule="nonzero"/><path fill="#c9acf1" d="M 188.585938 258.171875 C 190.324219 255.703125 191.199219 252.550781 191.199219 248.726562 L 191.199219 211.773438 L 170.625 252.765625 C 171.1875 255.476562 172.316406 257.667969 174 259.355469 C 175.679688 261.039062 177.933594 261.886719 180.742188 261.886719 C 184.222656 261.886719 186.84375 260.640625 188.585938 258.171875 Z M 172.984375 182.929688 C 171.1875 185.402344 170.289062 188.550781 170.289062 192.371094 L 170.289062 230.5 L 191.035156 189.171875 C 190.585938 186.132812 189.515625 183.71875 187.832031 181.914062 C 186.140625 180.117188 183.78125 179.214844 180.742188 179.214844 C 177.371094 179.214844 174.78125 180.453125 172.984375 182.929688 Z M 196.601562 165.300781 C 200.53125 167.824219 203.601562 171.257812 205.789062 175.59375 C 207.988281 179.921875 209.074219 184.726562 209.074219 190.011719 L 209.074219 251.089844 C 209.074219 256.375 207.988281 261.179688 205.789062 265.507812 C 203.601562 269.84375 200.53125 273.269531 196.601562 275.800781 C 192.660156 278.332031 188.105469 279.597656 182.933594 279.597656 L 178.546875 279.597656 C 173.378906 279.597656 168.828125 278.332031 164.886719 275.800781 C 160.957031 273.269531 157.910156 269.84375 155.78125 265.507812 C 153.648438 261.179688 152.578125 256.375 152.578125 251.089844 L 152.578125 190.011719 C 152.578125 184.726562 153.648438 179.921875 155.78125 175.59375 C 157.910156 171.257812 160.957031 167.824219 164.886719 165.300781 C 168.828125 162.769531 173.378906 161.5 178.546875 161.5 L 182.933594 161.5 C 188.105469 161.5 192.660156 162.769531 196.601562 165.300781 " fill-opacity="1" fill-rule="nonzero"/><path fill="#c9acf1" d="M 257.3125 246.53125 L 257.3125 210.425781 L 243.316406 246.53125 Z M 282.109375 247.457031 C 282.671875 248.082031 282.957031 248.835938 282.957031 249.734375 L 282.957031 261.039062 C 282.957031 261.9375 282.671875 262.703125 282.109375 263.3125 C 281.542969 263.9375 280.8125 264.25 279.910156 264.25 L 275.027344 264.25 L 275.027344 276.390625 C 275.027344 277.289062 274.75 278.054688 274.183594 278.667969 C 273.621094 279.289062 272.886719 279.597656 271.988281 279.597656 L 260.515625 279.597656 C 259.625 279.597656 258.859375 279.289062 258.238281 278.667969 C 257.625 278.054688 257.3125 277.289062 257.3125 276.390625 L 257.3125 264.25 L 221.894531 264.25 C 221.332031 264.25 220.859375 264.046875 220.460938 263.652344 C 220.074219 263.261719 219.871094 262.785156 219.871094 262.222656 C 219.871094 261.886719 219.992188 261.382812 220.210938 260.699219 L 257.148438 164.875 C 257.484375 163.976562 258.105469 163.191406 259.003906 162.515625 C 259.902344 161.835938 260.800781 161.5 261.699219 161.5 L 271.988281 161.5 C 272.886719 161.5 273.621094 161.8125 274.183594 162.433594 C 274.75 163.046875 275.027344 163.8125 275.027344 164.710938 L 275.027344 246.53125 L 279.910156 246.53125 C 280.8125 246.53125 281.542969 246.835938 282.109375 247.457031 " fill-opacity="1" fill-rule="nonzero"/><path fill="#c9acf1" d="M 304.136719 307.652344 L 55.832031 307.652344 C 52.148438 307.652344 49.167969 304.671875 49.167969 300.988281 C 49.167969 297.304688 52.148438 294.324219 55.832031 294.324219 L 304.136719 294.324219 C 307.820312 294.324219 310.800781 297.304688 310.800781 300.988281 C 310.800781 304.671875 307.820312 307.652344 304.136719 307.652344 " fill-opacity="1" fill-rule="nonzero"/><path fill="#7d45b5" d="M 20.71875 357.515625 L 44.960938 357.515625 C 46.917969 357.515625 48.664062 358.882812 48.96875 360.8125 C 49.359375 363.28125 47.46875 365.40625 45.074219 365.40625 L 20.71875 365.40625 C 18.542969 365.40625 16.769531 363.640625 16.769531 361.464844 C 16.769531 359.28125 18.542969 357.515625 20.71875 357.515625 " fill-opacity="1" fill-rule="nonzero"/><path fill="#7d45b5" d="M 57.144531 357.515625 L 75.640625 357.515625 C 77.589844 357.515625 79.335938 358.882812 79.644531 360.8125 C 80.039062 363.28125 78.140625 365.40625 75.746094 365.40625 L 57.144531 365.40625 C 54.960938 365.40625 53.195312 363.640625 53.195312 361.464844 C 53.195312 359.28125 54.960938 357.515625 57.144531 357.515625 " fill-opacity="1" fill-rule="nonzero"/><path fill="#7d45b5" d="M 87.152344 357.515625 L 159.492188 357.515625 C 161.449219 357.515625 163.195312 358.886719 163.5 360.8125 C 163.890625 363.28125 162 365.414062 159.609375 365.414062 L 87.152344 365.414062 C 84.96875 365.414062 83.203125 363.640625 83.203125 361.464844 C 83.203125 359.28125 84.96875 357.515625 87.152344 357.515625 " fill-opacity="1" fill-rule="nonzero"/><path fill="#7d45b5" d="M 20.71875 375.574219 L 113.316406 375.574219 C 115.273438 375.574219 117.019531 376.941406 117.324219 378.871094 C 117.714844 381.339844 115.816406 383.46875 113.425781 383.46875 L 20.71875 383.46875 C 18.542969 383.46875 16.769531 381.699219 16.769531 379.515625 C 16.769531 377.339844 18.542969 375.574219 20.71875 375.574219 " fill-opacity="1" fill-rule="nonzero"/><path fill="#7d45b5" d="M 126.449219 375.574219 L 159.492188 375.574219 C 161.449219 375.574219 163.195312 376.949219 163.5 378.878906 C 163.890625 381.339844 162 383.472656 159.609375 383.472656 L 126.449219 383.472656 C 124.273438 383.472656 122.5 381.699219 122.5 379.523438 C 122.5 377.339844 124.273438 375.574219 126.449219 375.574219 " fill-opacity="1" fill-rule="nonzero"/><path fill="#7d45b5" d="M 339.25 347.355469 L 298.808594 347.355469 C 296.851562 347.355469 295.105469 345.980469 294.800781 344.050781 C 294.410156 341.589844 296.300781 339.457031 298.699219 339.457031 L 339.25 339.457031 C 341.425781 339.457031 343.199219 341.226562 343.199219 343.40625 C 343.199219 345.589844 341.425781 347.355469 339.25 347.355469 " fill-opacity="1" fill-rule="nonzero"/><path fill="#7d45b5" d="M 286.625 347.355469 L 268.136719 347.355469 C 266.179688 347.355469 264.433594 345.980469 264.125 344.050781 C 263.738281 341.589844 265.628906 339.457031 268.019531 339.457031 L 286.625 339.457031 C 288.808594 339.457031 290.574219 341.226562 290.574219 343.40625 C 290.574219 345.589844 288.808594 347.355469 286.625 347.355469 " fill-opacity="1" fill-rule="nonzero"/><path fill="#7d45b5" d="M 256.617188 347.355469 L 200.476562 347.355469 C 198.519531 347.355469 196.773438 345.980469 196.46875 344.050781 C 196.078125 341.582031 197.96875 339.457031 200.359375 339.457031 L 256.617188 339.457031 C 258.800781 339.457031 260.566406 341.222656 260.566406 343.40625 C 260.566406 345.582031 258.800781 347.355469 256.617188 347.355469 " fill-opacity="1" fill-rule="nonzero"/><path fill="#7d45b5" d="M 339.25 329.296875 L 246.652344 329.296875 C 244.703125 329.296875 242.949219 327.921875 242.644531 325.996094 C 242.253906 323.527344 244.152344 321.402344 246.542969 321.402344 L 339.25 321.402344 C 341.425781 321.402344 343.199219 323.167969 343.199219 325.347656 C 343.199219 327.53125 341.425781 329.296875 339.25 329.296875 " fill-opacity="1" fill-rule="nonzero"/><path fill="#7d45b5" d="M 233.519531 329.296875 L 200.476562 329.296875 C 198.519531 329.296875 196.773438 327.921875 196.46875 325.992188 C 196.078125 323.523438 197.96875 321.394531 200.359375 321.394531 L 233.519531 321.394531 C 235.699219 321.394531 237.46875 323.160156 237.46875 325.347656 C 237.46875 327.523438 235.699219 329.296875 233.519531 329.296875 " fill-opacity="1" fill-rule="nonzero"/><path fill="#7d45b5" d="M 339.25 365.414062 L 279.34375 365.414062 C 277.394531 365.414062 275.648438 364.039062 275.335938 362.109375 C 274.945312 359.640625 276.84375 357.515625 279.234375 357.515625 L 339.136719 357.515625 C 341.09375 357.515625 342.839844 358.886719 343.148438 360.8125 C 343.542969 363.28125 341.644531 365.414062 339.25 365.414062 " fill-opacity="1" fill-rule="nonzero"/><path fill="#7d45b5" d="M 268.546875 362.109375 C 268.238281 364.039062 266.488281 365.414062 264.535156 365.414062 L 200.476562 365.414062 C 198.519531 365.414062 196.773438 364.039062 196.46875 362.109375 C 196.078125 359.640625 197.96875 357.515625 200.359375 357.515625 L 264.648438 357.515625 C 267.039062 357.515625 268.9375 359.640625 268.546875 362.109375 " fill-opacity="1" fill-rule="nonzero"/><path fill="#7d45b5" d="M 200.417969 375.574219 L 210.585938 375.574219 C 212.542969 375.574219 214.289062 376.949219 214.597656 378.871094 C 214.992188 381.339844 213.09375 383.472656 210.703125 383.472656 L 200.417969 383.472656 C 198.242188 383.472656 196.46875 381.699219 196.46875 379.523438 C 196.46875 377.339844 198.242188 375.574219 200.417969 375.574219 " fill-opacity="1" fill-rule="nonzero"/><path fill="#7d45b5" d="M 343.199219 379.523438 C 343.199219 381.699219 341.425781 383.472656 339.25 383.472656 L 222.21875 383.472656 C 220.042969 383.472656 218.269531 381.699219 218.269531 379.523438 C 218.269531 377.339844 220.042969 375.574219 222.21875 375.574219 L 339.25 375.574219 C 341.425781 375.574219 343.199219 377.339844 343.199219 379.523438 " fill-opacity="1" fill-rule="nonzero"/><path fill="#7d45b5" d="M 161.246094 347.355469 L 19.027344 347.355469 C 17.78125 347.355469 16.769531 346.34375 16.769531 345.09375 L 16.769531 323.648438 C 16.769531 322.410156 17.78125 321.394531 19.027344 321.394531 L 161.246094 321.394531 C 162.492188 321.394531 163.5 322.410156 163.5 323.648438 L 163.5 345.09375 C 163.5 346.34375 162.492188 347.355469 161.246094 347.355469 " fill-opacity="1" fill-rule="nonzero"/><path fill="#67deff" d="M 438.449219 528.472656 L 349.96875 528.472656 L 349.96875 500.097656 L 438.449219 500.097656 L 438.449219 528.472656 " fill-opacity="1" fill-rule="nonzero"/><path fill="#3c8fff" d="M 396.957031 328.871094 L 391.464844 328.871094 L 391.464844 301.414062 L 396.957031 301.414062 L 396.957031 328.871094 " fill-opacity="1" fill-rule="nonzero"/><path fill="#9de8ff" d="M 478.128906 505.601562 L 310.292969 505.601562 C 296.464844 505.601562 285.257812 494.394531 285.257812 480.5625 L 285.257812 376.449219 C 285.257812 362.617188 296.464844 351.40625 310.292969 351.40625 L 478.128906 351.40625 C 491.953125 351.40625 503.160156 362.617188 503.160156 376.449219 L 503.160156 480.5625 C 503.160156 494.394531 491.953125 505.601562 478.128906 505.601562 " fill-opacity="1" fill-rule="nonzero"/><path fill="#67deff" d="M 462.574219 482.085938 L 325.847656 482.085938 C 315.433594 482.085938 306.988281 473.644531 306.988281 463.230469 L 306.988281 393.785156 C 306.988281 383.367188 315.433594 374.921875 325.847656 374.921875 L 462.574219 374.921875 C 472.988281 374.921875 481.429688 383.367188 481.429688 393.785156 L 481.429688 463.230469 C 481.429688 473.644531 472.988281 482.085938 462.574219 482.085938 " fill-opacity="1" fill-rule="nonzero"/><path fill="#67deff" d="M 510.421875 453.507812 L 503.160156 453.507812 L 503.160156 397.691406 L 510.421875 397.691406 C 512.453125 397.691406 514.097656 399.335938 514.097656 401.367188 L 514.097656 449.832031 C 514.097656 451.863281 512.453125 453.507812 510.421875 453.507812 " fill-opacity="1" fill-rule="nonzero"/><path fill="#3c8fff" d="M 514.453125 446.726562 L 514.097656 446.726562 L 514.097656 404.46875 L 514.453125 404.46875 C 521.785156 404.46875 527.734375 410.421875 527.734375 417.757812 L 527.734375 433.441406 C 527.734375 440.777344 521.785156 446.726562 514.453125 446.726562 " fill-opacity="1" fill-rule="nonzero"/><path fill="#67deff" d="M 277.996094 397.691406 L 285.257812 397.691406 L 285.257812 453.507812 L 277.996094 453.507812 C 275.964844 453.507812 274.324219 451.863281 274.324219 449.832031 L 274.324219 401.367188 C 274.324219 399.335938 275.964844 397.691406 277.996094 397.691406 " fill-opacity="1" fill-rule="nonzero"/><path fill="#3c8fff" d="M 273.96875 404.46875 L 274.324219 404.46875 L 274.324219 446.726562 L 273.96875 446.726562 C 266.636719 446.726562 260.6875 440.777344 260.6875 433.441406 L 260.6875 417.757812 C 260.6875 410.421875 266.636719 404.46875 273.96875 404.46875 " fill-opacity="1" fill-rule="nonzero"/><path fill="#67deff" d="M 422.492188 351.40625 L 365.929688 351.40625 L 365.929688 343.359375 C 365.929688 339.773438 368.835938 336.859375 372.429688 336.859375 L 415.992188 336.859375 C 419.578125 336.859375 422.492188 339.773438 422.492188 343.359375 L 422.492188 351.40625 " fill-opacity="1" fill-rule="nonzero"/><path fill="#3c8fff" d="M 405.691406 336.859375 L 382.730469 336.859375 L 382.730469 334.398438 C 382.730469 328.21875 387.738281 323.210938 393.914062 323.210938 L 394.5 323.210938 C 400.683594 323.210938 405.691406 328.21875 405.691406 334.398438 L 405.691406 336.859375 " fill-opacity="1" fill-rule="nonzero"/><path fill="#f71880" d="M 406.855469 292.09375 C 406.855469 299.078125 401.191406 304.742188 394.210938 304.742188 C 387.222656 304.742188 381.566406 299.078125 381.566406 292.09375 C 381.566406 285.105469 387.222656 279.449219 394.210938 279.449219 C 401.191406 279.449219 406.855469 285.105469 406.855469 292.09375 " fill-opacity="1" fill-rule="nonzero"/><path fill="#3c8fff" d="M 368.289062 417.28125 C 368.289062 421.878906 364.5625 425.597656 359.96875 425.597656 C 355.375 425.597656 351.652344 421.878906 351.652344 417.28125 C 351.652344 412.6875 355.375 408.957031 359.96875 408.957031 C 364.5625 408.957031 368.289062 412.6875 368.289062 417.28125 " fill-opacity="1" fill-rule="nonzero"/><path fill="#3c8fff" d="M 436.765625 417.28125 C 436.765625 421.878906 433.046875 425.597656 428.453125 425.597656 C 423.859375 425.597656 420.128906 421.878906 420.128906 417.28125 C 420.128906 412.6875 423.859375 408.957031 428.453125 408.957031 C 433.046875 408.957031 436.765625 412.6875 436.765625 417.28125 " fill-opacity="1" fill-rule="nonzero"/><path fill="#3c90ff" d="M 377.984375 434.429688 C 377.136719 433.921875 376.863281 432.828125 377.363281 431.980469 C 377.929688 431.035156 383.15625 422.75 393.417969 422.339844 C 393.679688 422.332031 393.9375 422.328125 394.199219 422.328125 C 401.058594 422.328125 407.460938 425.972656 411.050781 431.972656 C 411.554688 432.828125 411.285156 433.921875 410.4375 434.429688 L 377.984375 434.429688 " fill-opacity="1" fill-rule="nonzero"/><path fill="#9de8ff" d="M 523.101562 619.257812 L 265.3125 619.257812 L 265.3125 547.429688 C 265.3125 531.949219 277.863281 519.402344 293.332031 519.402344 L 495.085938 519.402344 C 510.558594 519.402344 523.101562 531.949219 523.101562 547.429688 L 523.101562 619.257812 " fill-opacity="1" fill-rule="nonzero"/><path fill="#3c8fff" d="M 500.195312 600.433594 L 425.054688 600.433594 C 422.960938 600.433594 421.261719 598.734375 421.261719 596.640625 L 421.261719 558.167969 C 421.261719 556.078125 422.960938 554.382812 425.054688 554.382812 L 500.195312 554.382812 C 502.28125 554.382812 503.976562 556.078125 503.976562 558.167969 L 503.976562 596.640625 C 503.976562 598.734375 502.28125 600.433594 500.195312 600.433594 " fill-opacity="1" fill-rule="nonzero"/><path fill="#ffffff" d="M 490.410156 574.757812 L 457.964844 574.757812 C 456.257812 574.757812 454.734375 573.5625 454.460938 571.871094 C 454.117188 569.710938 455.777344 567.851562 457.871094 567.851562 L 490.410156 567.851562 C 492.316406 567.851562 493.859375 569.402344 493.859375 571.308594 C 493.859375 573.214844 492.316406 574.757812 490.410156 574.757812 " fill-opacity="1" fill-rule="nonzero"/><path fill="#ffffff" d="M 446.488281 574.757812 L 434.933594 574.757812 C 433.222656 574.757812 431.699219 573.554688 431.433594 571.871094 C 431.085938 569.710938 432.742188 567.851562 434.835938 567.851562 L 446.488281 567.851562 C 448.390625 567.851562 449.9375 569.394531 449.9375 571.300781 C 449.9375 573.214844 448.390625 574.757812 446.488281 574.757812 " fill-opacity="1" fill-rule="nonzero"/><path fill="#ffffff" d="M 490.410156 586.960938 L 476.4375 586.960938 C 474.730469 586.960938 473.199219 585.757812 472.933594 584.074219 C 472.589844 581.917969 474.25 580.050781 476.335938 580.050781 L 490.308594 580.050781 C 492.019531 580.050781 493.542969 581.253906 493.816406 582.9375 C 494.15625 585.09375 492.5 586.960938 490.410156 586.960938 " fill-opacity="1" fill-rule="nonzero"/><path fill="#ffffff" d="M 466.992188 584.070312 C 466.722656 585.757812 465.191406 586.960938 463.492188 586.960938 L 434.933594 586.960938 C 433.222656 586.960938 431.699219 585.757812 431.433594 584.070312 C 431.085938 581.917969 432.742188 580.050781 434.835938 580.050781 L 463.585938 580.050781 C 465.675781 580.050781 467.332031 581.917969 466.992188 584.070312 " fill-opacity="1" fill-rule="nonzero"/><path fill="#d5f3ff" d="M 296.125 392.664062 C 293.917969 392.664062 292.132812 390.878906 292.132812 388.671875 L 292.132812 374.195312 C 292.132812 371.984375 293.917969 370.199219 296.125 370.199219 C 298.332031 370.199219 300.125 371.984375 300.125 374.195312 L 300.125 388.671875 C 300.125 390.878906 298.332031 392.664062 296.125 392.664062 " fill-opacity="1" fill-rule="nonzero"/><path fill="#d5f3ff" d="M 296.125 412.054688 C 293.917969 412.054688 292.132812 410.269531 292.132812 408.058594 L 292.132812 403.683594 C 292.132812 401.480469 293.917969 399.691406 296.125 399.691406 C 298.332031 399.691406 300.125 401.480469 300.125 403.683594 L 300.125 408.058594 C 300.125 410.269531 298.332031 412.054688 296.125 412.054688 " fill-opacity="1" fill-rule="nonzero"/><path fill="#d5f3ff" d="M 311.988281 528.472656 C 311.988281 526.269531 313.773438 524.480469 315.980469 524.480469 L 341.238281 524.480469 C 343.445312 524.480469 345.230469 526.269531 345.230469 528.472656 C 345.230469 530.683594 343.445312 532.472656 341.238281 532.472656 L 315.980469 532.472656 C 313.773438 532.472656 311.988281 530.683594 311.988281 528.472656 " fill-opacity="1" fill-rule="nonzero"/><path fill="#d5f3ff" d="M 289.523438 528.472656 C 289.523438 526.269531 291.316406 524.480469 293.523438 524.480469 L 302.996094 524.480469 C 305.207031 524.480469 306.988281 526.269531 306.988281 528.472656 C 306.988281 530.683594 305.207031 532.472656 302.996094 532.472656 L 293.523438 532.472656 C 291.316406 532.472656 289.523438 530.683594 289.523438 528.472656 " fill-opacity="1" fill-rule="nonzero"/></svg>